<svg width="68" height="72" viewBox="0 0 68 72" fill="none" xmlns="http://www.w3.org/2000/svg">
<path d="M39.6667 6H17C15.4971 6 14.0558 6.63214 12.9931 7.75736C11.9304 8.88258 11.3333 10.4087 11.3333 12V60C11.3333 61.5913 11.9304 63.1174 12.9931 64.2426C14.0558 65.3679 15.4971 66 17 66H51C52.5029 66 53.9442 65.3679 55.0069 64.2426C56.0696 63.1174 56.6667 61.5913 56.6667 60V24L39.6667 6Z" stroke="#FF904E" stroke-width="2" stroke-linecap="round" stroke-linejoin="round"/>
<path d="M39.6667 6V24H56.6667" stroke="#FF904E" stroke-width="2" stroke-linecap="round" stroke-linejoin="round"/>
<path d="M45.3333 39H22.6667" stroke="#FF904E" stroke-width="2" stroke-linecap="round" stroke-linejoin="round"/>
<path d="M45.3333 51H22.6667" stroke="#FF904E" stroke-width="2" stroke-linecap="round" stroke-linejoin="round"/>
<path d="M28.3333 27H25.5H22.6667" stroke="#FF904E" stroke-width="2" stroke-linecap="round" stroke-linejoin="round"/>
</svg>
