<svg xmlns="http://www.w3.org/2000/svg" width="343.499" height="336.066" viewBox="0 0 343.499 336.066">
  <path id="Icon_awesome-map-marked-alt" data-name="Icon awesome-map-marked-alt" d="M169.25,0C128.353,0,95.2,36.329,95.2,81.147c0,36.233,48.395,102.271,66.936,126.242a8.763,8.763,0,0,0,14.222,0C194.9,183.418,243.3,117.38,243.3,81.147,243.3,36.329,210.146,0,169.25,0Zm0,108.2c-13.634,0-24.682-12.108-24.682-27.049S155.616,54.1,169.25,54.1s24.682,12.108,24.682,27.049S182.884,108.2,169.25,108.2ZM11.824,139.077C4.684,142.207,0,149.784,0,158.211V319.424c0,7.29,6.717,12.275,12.894,9.57l81.134-40.471V138.414a204.506,204.506,0,0,1-12.488-29.9ZM169.25,231.637a27.149,27.149,0,0,1-21.456-10.923c-11.554-14.941-23.842-31.957-34.961-49.41V288.517l112.833,41.218V171.311c-11.119,17.447-23.4,34.468-34.961,49.41A27.161,27.161,0,0,1,169.25,231.637ZM325.606,103.791l-81.134,40.471V329.741l82.2-36.033C333.816,290.58,338.5,283,338.5,274.574V113.361C338.5,106.071,331.782,101.086,325.606,103.791Z" transform="translate(2.5 2.5)" fill="#fff" stroke="#39f8d2" stroke-width="10"/>
</svg>
